<svg width="40" height="36" viewBox="0 0 40 36" fill="none" xmlns="http://www.w3.org/2000/svg">
<g id="Shopping cart" clip-path="url(#clip0_94_1054)">
<path id="Icon" d="M1.66669 1.5H8.33335L12.8 21.585C12.9524 22.2756 13.3699 22.8959 13.9793 23.3374C14.5887 23.779 15.3512 24.0135 16.1334 24H32.3334C33.1155 24.0135 33.878 23.779 34.4874 23.3374C35.0968 22.8959 35.5143 22.2756 35.6667 21.585L38.3334 9H10M16.6667 31.5C16.6667 32.3284 15.9205 33 15 33C14.0795 33 13.3334 32.3284 13.3334 31.5C13.3334 30.6716 14.0795 30 15 30C15.9205 30 16.6667 30.6716 16.6667 31.5ZM35 31.5C35 32.3284 34.2538 33 33.3334 33C32.4129 33 31.6667 32.3284 31.6667 31.5C31.6667 30.6716 32.4129 30 33.3334 30C34.2538 30 35 30.6716 35 31.5Z" stroke="#ffffff" stroke-width="4" stroke-linecap="round" stroke-linejoin="round"/>
</g>
<defs>
<clipPath id="clip0_94_1054">
<rect width="40" height="36" fill="white"/>
</clipPath>
</defs>
</svg>
