<svg width="24" height="24" viewBox="0 0 24 24" fill="none" xmlns="http://www.w3.org/2000/svg">
<g id="vuesax/linear/star">
<g id="star">
<path id="Vector" d="M13.73 3.51014L15.49 7.03014C15.73 7.52014 16.37 7.99014 16.91 8.08014L20.1 8.61014C22.14 8.95014 22.62 10.4301 21.15 11.8901L18.67 14.3701C18.25 14.7901 18.02 15.6001 18.15 16.1801L18.86 19.2501C19.42 21.6801 18.13 22.6201 15.98 21.3501L12.99 19.5801C12.45 19.2601 11.56 19.2601 11.01 19.5801L8.02003 21.3501C5.88003 22.6201 4.58003 21.6701 5.14003 19.2501L5.85003 16.1801C5.98003 15.6001 5.75003 14.7901 5.33003 14.3701L2.85003 11.8901C1.39003 10.4301 1.86003 8.95014 3.90003 8.61014L7.09003 8.08014C7.62003 7.99014 8.26003 7.52014 8.50003 7.03014L10.26 3.51014C11.22 1.60014 12.78 1.60014 13.73 3.51014Z" stroke="#292D32" stroke-width="1.5" stroke-linecap="round" stroke-linejoin="round"/>
</g>
</g>
</svg>
